<svg id="background-2" width="2600" xmlns="http://www.w3.org/2000/svg" viewBox="0 0 1300 104">
    <defs>
        <g id="background-2-cards">
            <image height="100" y="0" x="0" transform-origin="0 50" transform="scale(1.07) rotate(-90) translate(-5.2 46.6)" href="assets/images/cartes/actions/accessibilité.png" />
            <image height="100" y="0" x="100" transform-origin="100 50" transform="scale(1.07) rotate(-90) translate(-5.2 46.6)" href="assets/images/cartes/actions/administratif.png" />
            <image height="100" y="0" x="200" transform-origin="200 50" transform="scale(1.07) rotate(-90) translate(-5.2 46.6)" href="assets/images/cartes/actions/amour.png" />
            <image height="100" y="0" x="300" transform-origin="300 50" transform="scale(1.07) rotate(-90) translate(-5.2 46.6)" href="assets/images/cartes/actions/changement.png" />
            <image height="100" y="0" x="400" transform-origin="400 50" transform="scale(1.07) rotate(-90) translate(-5.2 46.6)" href="assets/images/cartes/actions/estime.png" />
            <image height="100" y="0" x="500" transform-origin="500 50" transform="scale(1.07) rotate(-90) translate(-5.2 46.6)" href="assets/images/cartes/actions/finances.png" />
            <image height="100" y="0" x="600" transform-origin="600 50" transform="scale(1.07) rotate(-90) translate(-5.2 46.6)" href="assets/images/cartes/actions/soutien.png" />
            <image height="100" y="0" x="700" transform-origin="700 50" transform="scale(1.07) rotate(-90) translate(-5.2 46.6)" href="assets/images/cartes/actions/refuge.png" />
            <image height="100" y="0" x="800" transform-origin="800 50" transform="scale(1.07) rotate(-90) translate(-5.2 46.6)" href="assets/images/cartes/actions/représentation.png" />
            <image height="100" y="0" x="900" transform-origin="900 50" transform="scale(1.07) rotate(-90) translate(-5.2 46.6)" href="assets/images/cartes/actions/respect.png" />
            <image height="100" y="0" x="1000" transform-origin="1000 50" transform="scale(1.07) rotate(-90) translate(-5.2 46.6)" href="assets/images/cartes/actions/réconfort.png" />
            <image height="100" y="0" x="1100" transform-origin="1100 50" transform="scale(1.07) rotate(-90) translate(-5.2 46.6)" href="assets/images/cartes/actions/temps.png" />
            <image height="100" y="0" x="1200" transform-origin="1200 50" transform="scale(1.07) rotate(-90) translate(-5.2 46.6)" href="assets/images/cartes/actions/écoute.png" />
        </g>
    </defs>
    <use href="#background-2-cards"></use>
    <!-- <use href="#background-2-cards" transform-origin="50% 50%" transform="rotate(180)"></use> -->
</svg>