<svg version="1.1" id="Layer_1" xmlns="http://www.w3.org/2000/svg" xmlns:xlink="http://www.w3.org/1999/xlink" x="0px" y="0px"
	 width="100%" viewBox="0 0 1391 765" enable-background="new 0 0 1391 765" xml:space="preserve">
<path fill="#06030C" opacity="1.000000" stroke="none" 
	d="
M0.999999,171.000000 
	C1.000000,166.643097 1.000000,162.286194 1.344149,157.454193 
	C2.645113,157.886200 3.697816,158.712173 4.544272,159.712646 
	C16.073620,173.339783 30.164129,184.063980 45.149715,193.321533 
	C71.771057,209.767242 100.266449,222.382233 130.162216,231.761597 
	C139.377182,234.652618 148.645966,236.413544 157.748550,231.957260 
	C160.321243,230.697754 163.183731,228.219589 164.073227,225.660690 
	C167.157013,216.789444 168.175690,207.486481 166.496796,198.147491 
	C162.993439,178.659653 155.483810,160.470871 146.274658,143.195831 
	C132.961105,118.221565 116.676338,95.072937 98.786873,73.135971 
	C78.147644,47.827091 55.828896,24.107004 30.763979,3.069682 
	C30.274847,2.659148 30.244431,1.702080 30.000000,1.000000 
	C46.687561,1.000000 63.375122,1.000000 80.382370,1.348131 
	C90.334892,15.649250 99.182999,30.236387 109.809586,43.386322 
	C121.695816,58.095009 134.227768,72.582481 148.285797,85.143837 
	C160.311218,95.889015 174.307632,104.824059 188.466141,112.701500 
	C215.431992,127.704628 244.393738,134.918198 275.430237,128.925980 
	C298.157013,124.538132 315.098846,111.719765 321.104126,89.282623 
	C328.265228,62.526848 322.967255,37.417313 303.557068,16.351856 
	C298.931946,11.332331 294.513489,6.122375 290.000000,1.000000 
	C364.020905,1.000000 438.041779,1.000000 512.839355,1.287265 
	C538.069641,1.660199 562.523315,1.745869 587.441223,1.910903 
	C600.731140,1.990028 613.557007,2.023068 626.382263,1.945927 
	C627.923340,1.936658 629.460815,1.329855 631.000000,1.000003 
	C674.687561,1.000000 718.375122,1.000000 762.795654,1.334991 
	C778.692749,1.726496 793.856934,1.783011 809.484314,1.905311 
	C831.896118,1.976806 853.844727,2.004822 875.793152,1.945455 
	C877.529602,1.940758 879.264404,1.329419 881.000000,1.000005 
	C955.020935,1.000000 1029.041870,1.000000 1103.312134,1.250424 
	C1100.293335,5.280890 1097.251831,9.288736 1093.718994,12.802726 
	C1075.482666,30.942139 1068.474243,52.741474 1070.609741,78.261185 
	C1072.416382,99.849457 1084.449219,113.926361 1102.289795,123.570885 
	C1116.120483,131.047806 1131.619141,131.943802 1147.070679,130.739914 
	C1185.247559,127.765305 1216.821899,109.524857 1245.299805,85.830994 
	C1266.182617,68.456268 1282.754272,46.752800 1298.555054,24.696674 
	C1303.927612,17.197266 1308.216187,8.921194 1313.000000,0.999997 
	C1329.687622,1.000000 1346.375122,1.000000 1363.860596,1.251343 
	C1364.499023,1.792805 1364.408569,2.167623 1364.170654,2.360946 
	C1340.161499,21.866716 1319.250610,44.481983 1299.383301,68.023979 
	C1279.711426,91.334602 1262.249756,116.337341 1247.749146,143.188812 
	C1241.621460,154.535919 1237.187134,166.840439 1232.494141,178.908539 
	C1226.762451,193.647552 1224.758667,208.855392 1229.421631,224.320297 
	C1230.174561,226.817627 1232.008545,230.221008 1234.068970,230.858231 
	C1239.958740,232.679840 1246.465332,234.901367 1252.284424,234.021835 
	C1262.162598,232.528793 1271.926270,229.380798 1281.324341,225.832291 
	C1293.578735,221.205215 1305.534790,215.736603 1317.432983,210.227875 
	C1344.671753,197.616653 1369.740479,181.846039 1389.944946,159.194717 
	C1390.446167,158.632599 1391.306885,158.391037 1392.000000,158.000015 
	C1392.000000,181.020889 1392.000000,204.041794 1391.557739,227.523956 
	C1378.139282,229.887390 1364.924316,230.805328 1352.232910,233.882278 
	C1318.516724,242.056564 1290.158203,260.095978 1265.966553,284.530731 
	C1256.052246,294.544678 1247.622314,305.866455 1241.807983,319.127441 
	C1231.474976,342.694092 1227.714478,367.244568 1228.985596,392.685059 
	C1230.516113,423.311157 1238.286987,451.850922 1259.071045,475.441650 
	C1265.532593,482.775818 1272.567505,489.708954 1279.975830,496.087097 
	C1312.141479,523.779358 1349.529297,538.447266 1392.000000,540.000000 
	C1392.000000,563.020874 1392.000000,586.041809 1391.661499,609.505737 
	C1380.201172,596.206543 1366.316528,585.483765 1351.612793,576.167419 
	C1323.853027,558.578796 1293.838745,545.564270 1262.574463,535.441650 
	C1253.618408,532.541870 1244.641113,531.632446 1235.989746,535.933716 
	C1233.448242,537.197327 1230.701538,539.815491 1229.856323,542.403198 
	C1226.951782,551.296387 1225.873291,560.551208 1227.526978,569.899780 
	C1230.860352,588.743652 1237.475220,606.734863 1247.039185,622.953308 
	C1260.437134,645.673096 1275.288818,667.662292 1291.025269,688.844604 
	C1311.686157,716.655090 1335.713501,741.556213 1362.363159,763.823059 
	C1362.845215,764.225769 1362.799438,765.260315 1363.000000,766.000000 
	C1346.645752,766.000000 1330.291504,766.000000 1313.525146,765.638306 
	C1298.392700,739.232605 1278.895264,716.832153 1259.086182,694.692810 
	C1247.548706,681.797974 1233.203613,672.583252 1218.811035,663.113953 
	C1188.494873,643.167786 1156.057007,634.230896 1119.883789,638.933594 
	C1098.837402,641.669739 1077.557251,658.427124 1072.774780,678.338196 
	C1068.072510,697.915161 1068.400757,717.622986 1079.151611,735.409851 
	C1084.687500,744.568787 1092.300049,752.467957 1098.907715,760.987915 
	C1100.103760,762.530334 1100.977417,764.322937 1102.000000,766.000000 
	C831.979126,766.000000 561.958191,766.000000 291.607056,765.695679 
	C294.235382,762.006470 296.997772,758.423340 300.184967,755.269531 
	C318.600281,737.047485 325.060669,715.105103 323.515106,689.405334 
	C322.079651,665.536560 299.659851,644.147766 280.790588,640.229980 
	C261.321136,636.187561 241.847870,636.849243 222.432877,641.486938 
	C197.387848,647.469482 176.470856,661.539368 155.964981,675.930298 
	C145.893463,682.998413 137.101852,692.309692 129.038330,701.725403 
	C115.552803,717.472412 102.972893,734.007385 90.325729,750.452148 
	C86.665939,755.210815 84.078865,760.794556 81.000015,766.000000 
	C64.645775,766.000000 48.291542,766.000000 31.138090,765.746826 
	C42.545456,753.778381 54.855782,742.169006 66.937828,730.326721 
	C95.075768,702.747253 117.556435,670.754761 138.903778,637.864990 
	C149.414932,621.670471 156.106567,603.760864 162.661774,585.829651 
	C167.597595,572.328247 168.771530,558.324158 164.984299,544.169678 
	C163.833740,539.869507 161.661667,536.769592 157.218475,535.263916 
	C149.946884,532.799805 142.706985,532.140320 135.266830,534.385254 
	C102.134209,544.382385 70.630112,558.205261 41.495995,576.793457 
	C29.544432,584.418823 19.249186,594.654419 8.288471,603.808044 
	C5.677769,605.988342 3.420057,608.591370 0.999992,611.000000 
	C1.000000,606.310730 1.000000,601.621521 1.292616,596.167908 
	C1.722395,593.598267 1.975430,591.793091 1.978652,589.987549 
	C2.008271,573.387634 1.994614,556.787720 2.007598,540.104736 
	C2.021633,540.021729 2.043855,539.854858 2.481023,539.922729 
	C15.734411,538.152588 28.791491,537.311523 41.320385,534.284424 
	C75.027969,526.140381 103.437050,508.177307 127.705414,483.837738 
	C137.771729,473.741913 146.281281,462.270660 152.186356,448.873260 
	C164.727875,420.419067 167.545090,390.786591 163.750961,360.407776 
	C161.129181,339.415649 154.942276,319.332703 142.371429,301.954193 
	C124.665771,277.477173 101.649178,259.309967 74.576698,245.956070 
	C51.648266,234.646271 27.504925,228.888779 2.041763,228.063049 
	C2.027746,227.979156 1.995257,227.812164 2.012673,227.356659 
	C2.020316,210.157425 2.042190,193.413513 1.956927,176.670166 
	C1.947294,174.778534 1.333588,172.889984 0.999999,171.000000 
M1012.500244,156.892807 
	C976.670410,156.934631 940.840576,157.011215 905.010742,157.012527 
	C700.864624,157.019989 496.718536,157.028717 292.572510,156.895264 
	C287.424164,156.891891 283.383667,158.380356 280.230499,162.025360 
	C277.430481,165.262131 274.764801,168.758911 272.777222,172.529602 
	C264.414978,188.393890 253.824417,202.332870 238.835266,212.473007 
	C232.926468,216.470306 226.490326,219.682831 220.527084,223.606491 
	C215.384918,226.989929 209.035278,229.753479 209.031982,237.357132 
	C208.988815,337.181305 208.986511,437.005554 209.109039,536.829590 
	C209.111771,539.061462 210.135132,541.843872 211.666397,543.403015 
	C214.534592,546.323303 217.841995,549.084045 221.462784,550.946899 
	C238.499817,559.712219 253.245590,571.092224 263.935486,587.188293 
	C267.516632,592.580505 270.720642,598.244934 273.781158,603.954285 
	C276.238373,608.538330 279.093689,611.046814 284.936676,611.026306 
	C352.095062,610.791016 419.254456,610.841125 486.413605,610.851379 
	C633.231995,610.873718 780.050354,610.926697 926.868713,610.946716 
	C988.529236,610.955139 1050.190308,610.787292 1111.849365,611.073425 
	C1118.450195,611.104004 1121.919434,608.764526 1124.569336,603.263428 
	C1132.969238,585.825195 1144.746948,571.136902 1160.963745,560.341125 
	C1166.350708,556.754883 1172.156616,553.801636 1177.734375,550.497192 
	C1184.103271,546.724060 1188.264404,542.493835 1188.231201,533.707520 
	C1187.860840,435.884521 1187.871826,338.059204 1188.222534,240.236099 
	C1188.252319,231.926849 1184.675659,227.179688 1178.386841,224.135574 
	C1153.744507,212.207413 1135.706055,194.062576 1123.594360,169.478180 
	C1119.730835,161.635849 1113.419556,156.518753 1102.983276,156.743301 
	C1073.168091,157.384720 1043.329468,156.934357 1012.500244,156.892807 
M647.529114,93.330162 
	C644.978149,87.969940 643.220703,82.017303 639.737976,77.352753 
	C625.196167,57.876320 604.981140,45.754635 583.061523,36.598198 
	C549.279602,22.486570 514.035339,16.820734 477.485016,21.155611 
	C467.548126,22.334129 457.883392,24.840076 449.290283,30.316084 
	C444.903992,33.111267 441.748169,36.873394 444.024567,42.347477 
	C447.195801,49.973370 449.861664,58.125134 454.598236,64.719978 
	C465.129059,79.382462 478.800903,91.146332 493.727203,101.218124 
	C508.508057,111.191727 524.060669,119.867577 541.548523,124.286743 
	C558.724487,128.627090 576.283936,129.515778 593.918274,129.715866 
	C606.060608,129.853622 617.726501,127.780769 628.995911,123.279465 
	C641.571777,118.256310 649.510071,108.765060 647.529114,93.330162 
M921.419128,21.910204 
	C892.229919,18.031761 863.507874,19.633705 835.179077,28.276480 
	C813.119385,35.006611 791.974915,43.602165 773.807800,57.993839 
	C763.833862,65.894989 754.350342,74.452408 748.775085,86.627266 
	C742.077576,101.252876 749.122375,117.128555 765.143738,123.410172 
	C785.987305,131.582489 807.350586,130.281967 828.711121,128.190613 
	C839.835327,127.101463 851.274902,125.333839 861.672058,121.458298 
	C891.297424,110.415543 916.671265,92.608215 936.889893,68.217117 
	C942.453186,61.505669 946.338013,53.113117 949.711609,44.961617 
	C952.797668,37.505013 950.974243,33.380894 943.657898,29.847975 
	C936.856201,26.563602 929.423767,24.585371 921.419128,21.910204 
M462.899597,692.399963 
	C457.679657,699.795959 451.329468,706.652466 447.485596,714.705322 
	C440.459564,729.424927 441.189575,734.221008 456.648895,740.939880 
	C457.541443,741.327820 458.463196,741.648254 459.369019,742.006104 
	C469.059357,745.834778 479.230835,747.097412 489.514130,746.930176 
	C504.559387,746.685547 519.898010,747.641541 534.568237,745.031738 
	C557.912842,740.878784 580.570129,733.759460 601.551758,721.901978 
	C617.911316,712.656677 632.581238,701.637756 642.684998,685.707520 
	C653.103149,669.281616 648.727295,653.730530 631.528503,645.511780 
	C624.799133,642.296021 617.201965,639.735168 609.842285,639.245361 
	C595.295837,638.277283 580.534485,637.880005 566.060730,639.288818 
	C553.650879,640.496826 541.074036,643.332214 529.354431,647.599487 
	C503.882416,656.874268 482.260254,672.479553 462.899597,692.399963 
M747.348145,661.178955 
	C743.530151,673.385071 748.680359,683.242310 755.944458,692.264038 
	C771.778198,711.928772 793.016846,724.020264 816.054077,732.831665 
	C834.153992,739.754578 852.823730,745.548889 872.347534,746.766113 
	C885.237183,747.569702 898.238708,747.474915 911.144653,746.847107 
	C922.016418,746.318237 932.635620,743.874695 942.468201,738.671753 
	C949.995544,734.688660 952.759155,729.945801 949.727356,722.041931 
	C947.025208,714.997498 944.075134,707.422058 939.133728,701.993042 
	C928.897949,690.747253 918.011475,679.813110 906.030823,670.503235 
	C888.978516,657.252380 869.985840,647.011780 848.500488,642.462646 
	C831.191711,638.797791 813.626770,637.352051 795.975830,638.015869 
	C788.748352,638.287720 781.424927,639.415466 774.411560,641.200806 
	C763.132080,644.072083 752.595276,648.533691 747.348145,661.178955 
M388.075684,698.579163 
	C392.620819,697.813721 397.193146,697.181580 401.706604,696.260864 
	C427.413116,691.017212 450.537720,679.731873 472.651215,666.006653 
	C485.277863,658.169617 497.441162,649.814392 507.085510,638.314148 
	C512.947266,631.324341 512.188599,627.648682 504.066986,623.831116 
	C501.835480,622.782166 499.442871,621.917664 497.030853,621.436462 
	C480.422272,618.122742 463.553680,617.552185 446.877655,619.562256 
	C417.614319,623.089478 389.662842,631.246155 364.549622,647.343384 
	C352.876465,654.825745 342.926117,664.077698 337.726410,677.287170 
	C335.768860,682.260132 333.639038,688.348328 338.621918,692.482117 
	C342.378052,695.598145 347.429260,697.533264 352.212769,698.955383 
	C363.809937,702.403137 375.553436,701.014038 388.075684,698.579163 
M1008.590515,635.797058 
	C995.830872,631.697388 983.237732,626.945007 970.275513,623.639648 
	C946.458862,617.566528 922.257935,617.014282 898.043457,621.318176 
	C892.773804,622.254822 886.612732,622.997803 884.249695,628.725403 
	C881.595642,635.158020 887.045227,638.894226 890.896057,642.495056 
	C915.645752,665.638672 944.406555,682.121094 976.764404,691.877808 
	C997.976257,698.273682 1019.577576,703.840210 1042.087036,699.043091 
	C1056.328979,696.007874 1062.401611,689.654602 1055.248413,675.319519 
	C1051.845337,668.499695 1047.123901,661.586243 1041.248535,656.920105 
	C1031.332520,649.044983 1020.023132,642.924316 1008.590515,635.797058 
M426.852509,78.630890 
	C424.472137,77.889603 422.089783,77.154716 419.711761,76.406013 
	C401.705261,70.736893 383.344604,66.760452 364.403931,67.142937 
	C356.027863,67.312073 347.395630,68.074677 340.175964,73.493332 
	C337.321655,75.635612 335.925995,78.069969 336.083954,81.925056 
	C336.592377,94.333672 344.180145,102.732712 352.292175,110.543259 
	C362.505981,120.377441 374.878906,127.394737 387.848480,132.699997 
	C419.442566,145.623657 452.296600,151.885300 486.532837,147.744629 
	C493.202911,146.937927 499.856293,144.968842 506.177826,142.621399 
	C511.465576,140.657822 512.127869,136.379578 508.787537,131.713013 
	C507.725922,130.229889 506.530823,128.821274 505.258362,127.513252 
	C483.336823,104.979935 456.069611,90.967613 426.852509,78.630890 
M970.232300,77.668472 
	C959.052490,82.750473 947.558777,87.248039 936.764160,93.047043 
	C919.165833,102.501106 902.032532,112.749405 888.308716,127.785973 
	C881.331726,135.430389 881.805237,141.343430 892.609314,144.949356 
	C894.025818,145.422134 895.480957,145.902252 896.952942,146.065247 
	C905.836060,147.049011 914.738098,148.759048 923.616821,148.662125 
	C935.322815,148.534317 947.075073,147.437622 958.697571,145.917572 
	C984.886353,142.492462 1009.247070,133.609940 1031.236572,118.957222 
	C1042.053223,111.749466 1051.311035,102.759674 1056.424316,90.267609 
	C1060.346558,80.685265 1057.663208,72.693367 1047.752808,70.366364 
	C1038.330933,68.154068 1028.175415,66.409279 1018.724731,67.570702 
	C1002.645996,69.546661 986.867188,73.963097 970.232300,77.668472 
M697.366272,136.695450 
	C705.928101,133.105164 710.239075,125.742668 712.979553,117.647385 
	C718.110535,102.490562 718.583191,86.774467 717.411499,70.905609 
	C716.402039,57.234287 712.569580,44.679623 704.485229,33.506340 
	C699.909790,27.182611 693.856079,26.957344 689.717896,33.708389 
	C685.962585,39.834846 682.160889,46.261005 680.165833,53.077812 
	C673.777466,74.905548 674.450012,96.970573 681.451111,118.519920 
	C683.926758,126.139984 688.256958,133.414093 697.366272,136.695450 
M691.578186,633.999023 
	C688.052063,639.664490 683.282532,644.919006 681.246948,651.077209 
	C676.329163,665.954773 675.345764,681.407227 676.822021,697.134766 
	C678.111328,710.869995 681.808655,723.494934 689.929260,734.702637 
	C693.908020,740.193726 700.711792,740.306152 704.208496,734.451233 
	C707.908020,728.256775 711.817444,721.871338 713.814514,715.037354 
	C719.188293,696.648010 718.966980,677.886292 715.333496,659.107788 
	C713.430115,649.270935 709.843201,640.454285 702.105469,633.664001 
	C698.694702,630.670837 695.510620,630.051086 691.578186,633.999023 
M1024.937378,757.807312 
	C1032.069702,757.865417 1039.216309,758.227905 1046.330200,757.893005 
	C1052.972900,757.580139 1059.846680,756.818420 1063.853882,750.442627 
	C1065.187866,748.319946 1066.618774,744.493103 1065.638184,743.004272 
	C1062.418457,738.115295 1058.841675,732.814026 1054.071655,729.727478 
	C1044.024170,723.226196 1032.970215,718.530090 1020.977539,716.363098 
	C1009.100891,714.217163 997.250183,712.745911 985.344116,715.791138 
	C973.283020,718.876038 972.574402,731.209290 977.944519,738.368164 
	C982.419556,744.333618 988.380798,748.828918 995.553284,750.841431 
	C1004.948669,753.477539 1014.574341,755.292664 1024.937378,757.807312 
M397.172913,16.268209 
	C382.749451,12.222124 368.264069,8.223253 353.104767,9.109412 
	C345.263367,9.567792 337.012726,9.403055 330.940186,16.104271 
	C327.959808,19.393225 326.095032,22.837782 329.325226,26.618711 
	C333.023193,30.947201 336.701752,35.701073 341.392273,38.701218 
	C360.486420,50.914242 381.814423,54.405041 404.106537,52.949177 
	C410.150848,52.554440 415.939056,50.453026 418.210083,44.415916 
	C420.178955,39.181915 420.100830,32.984898 415.600586,29.015984 
	C410.219086,24.269876 403.847168,20.646835 397.172913,16.268209 
M379.413605,755.999023 
	C389.730408,754.063843 399.829865,751.629639 408.722107,745.567566 
	C416.894073,739.996582 421.178894,732.096130 418.608765,724.494629 
	C415.978210,716.714417 408.947723,715.120728 401.684845,714.515320 
	C378.606964,712.591553 357.415161,718.478882 338.163330,730.897522 
	C333.958405,733.610046 331.306885,738.809570 328.171875,743.035767 
	C327.537262,743.891235 327.494904,745.724365 327.955109,746.763184 
	C330.290924,752.035522 334.231140,756.032043 339.932648,756.995850 
	C352.813599,759.173096 365.741943,758.937622 379.413605,755.999023 
M990.612610,19.021471 
	C986.982727,21.878925 983.204224,24.569160 979.758179,27.633377 
	C974.731018,32.103481 973.783386,38.238247 975.682739,44.074589 
	C977.593201,49.945206 983.199341,52.544518 989.066650,52.883301 
	C1008.275635,53.992428 1027.099854,52.318386 1044.570679,43.244972 
	C1052.951904,38.892204 1061.820679,34.974873 1065.364746,25.157400 
	C1066.005371,23.382847 1066.294434,20.299446 1065.289307,19.328800 
	C1061.927979,16.083147 1058.268433,11.912575 1054.076172,10.968405 
	C1032.367920,6.079366 1011.590942,11.008932 990.612610,19.021471 
M227.098007,174.598114 
	C218.074295,184.181061 211.892105,195.135056 210.088196,208.331680 
	C229.029068,213.654404 265.702118,177.160736 258.025482,157.755585 
	C246.161148,159.931381 236.329987,165.937958 227.098007,174.598114 
M1186.425903,205.106171 
	C1180.229004,176.022339 1154.601074,159.585037 1139.359009,158.366364 
	C1138.064331,165.518234 1138.842651,172.516708 1143.271851,178.228073 
	C1149.129761,185.782059 1155.340088,193.213806 1162.333130,199.689117 
	C1168.019043,204.954056 1175.056641,208.777039 1183.361206,208.883179 
	C1185.439575,208.909729 1187.664185,209.214508 1186.425903,205.106171 
M216.479919,583.960876 
	C221.313538,592.909241 228.165070,599.942505 236.220901,606.131775 
	C243.261810,611.541321 250.687408,611.808899 258.700836,610.140015 
	C259.756592,590.647766 227.795975,561.564575 209.530396,566.173645 
	C211.750549,571.945740 213.935623,577.626648 216.479919,583.960876 
M1154.042236,609.966309 
	C1171.958374,600.385803 1182.638672,585.549866 1186.942383,565.742798 
	C1167.716064,561.493896 1135.048462,597.054138 1139.884888,611.176208 
	C1144.178101,610.895569 1148.737793,610.597534 1154.042236,609.966309 
z"/>
<path fill="#43C6F7" opacity="1.000000" stroke="none" 
	d="
M1392.000000,539.531372 
	C1349.529297,538.447266 1312.141479,523.779358 1279.975830,496.087097 
	C1272.567505,489.708954 1265.532593,482.775818 1259.071045,475.441650 
	C1238.286987,451.850922 1230.516113,423.311157 1228.985596,392.685059 
	C1227.714478,367.244568 1231.474976,342.694092 1241.807983,319.127441 
	C1247.622314,305.866455 1256.052246,294.544678 1265.966553,284.530731 
	C1290.158203,260.095978 1318.516724,242.056564 1352.232910,233.882278 
	C1364.924316,230.805328 1378.139282,229.887390 1391.557739,227.992615 
	C1392.000000,331.687561 1392.000000,435.375122 1392.000000,539.531372 
z"/>
<path fill="#42C6F6" opacity="1.000000" stroke="none" 
	d="
M29.531342,1.000000 
	C30.244431,1.702080 30.274847,2.659148 30.763979,3.069682 
	C55.828896,24.107004 78.147644,47.827091 98.786873,73.135971 
	C116.676338,95.072937 132.961105,118.221565 146.274658,143.195831 
	C155.483810,160.470871 162.993439,178.659653 166.496796,198.147491 
	C168.175690,207.486481 167.157013,216.789444 164.073227,225.660690 
	C163.183731,228.219589 160.321243,230.697754 157.748550,231.957260 
	C148.645966,236.413544 139.377182,234.652618 130.162216,231.761597 
	C100.266449,222.382233 71.771057,209.767242 45.149715,193.321533 
	C30.164129,184.063980 16.073620,173.339783 4.544272,159.712646 
	C3.697816,158.712173 2.645113,157.886200 1.344149,156.989548 
	C1.000000,105.123245 1.000000,53.246490 1.000000,1.000000 
	C10.350980,1.000000 19.706831,1.000000 29.531342,1.000000 
z"/>
<path fill="#43C6F6" opacity="1.000000" stroke="none" 
	d="
M0.999992,611.468628 
	C3.420057,608.591370 5.677769,605.988342 8.288471,603.808044 
	C19.249186,594.654419 29.544432,584.418823 41.495995,576.793457 
	C70.630112,558.205261 102.134209,544.382385 135.266830,534.385254 
	C142.706985,532.140320 149.946884,532.799805 157.218475,535.263916 
	C161.661667,536.769592 163.833740,539.869507 164.984299,544.169678 
	C168.771530,558.324158 167.597595,572.328247 162.661774,585.829651 
	C156.106567,603.760864 149.414932,621.670471 138.903778,637.864990 
	C117.556435,670.754761 95.075768,702.747253 66.937828,730.326721 
	C54.855782,742.169006 42.545456,753.778381 30.669434,765.746826 
	C21.023703,766.000000 11.047406,766.000000 1.000000,766.000000 
	C1.000000,714.645813 1.000000,663.291565 0.999992,611.468628 
z"/>
<path fill="#42C6F6" opacity="1.000000" stroke="none" 
	d="
M1392.000000,157.531357 
	C1391.306885,158.391037 1390.446167,158.632599 1389.944946,159.194717 
	C1369.740479,181.846039 1344.671753,197.616653 1317.432983,210.227875 
	C1305.534790,215.736603 1293.578735,221.205215 1281.324341,225.832291 
	C1271.926270,229.380798 1262.162598,232.528793 1252.284424,234.021835 
	C1246.465332,234.901367 1239.958740,232.679840 1234.068970,230.858231 
	C1232.008545,230.221008 1230.174561,226.817627 1229.421631,224.320297 
	C1224.758667,208.855392 1226.762451,193.647552 1232.494141,178.908539 
	C1237.187134,166.840439 1241.621460,154.535919 1247.749146,143.188812 
	C1262.249756,116.337341 1279.711426,91.334602 1299.383301,68.023979 
	C1319.250610,44.481983 1340.161499,21.866716 1364.170654,2.360946 
	C1364.408569,2.167623 1364.499023,1.792805 1364.329102,1.251343 
	C1373.311157,1.000000 1382.622437,1.000000 1392.000000,1.000000 
	C1392.000000,53.020878 1392.000000,105.041779 1392.000000,157.531357 
z"/>
<path fill="#43C6F6" opacity="1.000000" stroke="none" 
	d="
M1363.468628,766.000000 
	C1362.799438,765.260315 1362.845215,764.225769 1362.363159,763.823059 
	C1335.713501,741.556213 1311.686157,716.655090 1291.025269,688.844604 
	C1275.288818,667.662292 1260.437134,645.673096 1247.039185,622.953308 
	C1237.475220,606.734863 1230.860352,588.743652 1227.526978,569.899780 
	C1225.873291,560.551208 1226.951782,551.296387 1229.856323,542.403198 
	C1230.701538,539.815491 1233.448242,537.197327 1235.989746,535.933716 
	C1244.641113,531.632446 1253.618408,532.541870 1262.574463,535.441650 
	C1293.838745,545.564270 1323.853027,558.578796 1351.612793,576.167419 
	C1366.316528,585.483765 1380.201172,596.206543 1391.661499,609.974365 
	C1392.000000,661.876770 1392.000000,713.753540 1392.000000,766.000000 
	C1382.649048,766.000000 1373.293091,766.000000 1363.468628,766.000000 
z"/>
<path fill="#FE77A2" opacity="1.000000" stroke="none" 
	d="
M1312.531372,0.999997 
	C1308.216187,8.921194 1303.927612,17.197266 1298.555054,24.696674 
	C1282.754272,46.752800 1266.182617,68.456268 1245.299805,85.830994 
	C1216.821899,109.524857 1185.247559,127.765305 1147.070679,130.739914 
	C1131.619141,131.943802 1116.120483,131.047806 1102.289795,123.570885 
	C1084.449219,113.926361 1072.416382,99.849457 1070.609741,78.261185 
	C1068.474243,52.741474 1075.482666,30.942139 1093.718994,12.802726 
	C1097.251831,9.288736 1100.293335,5.280890 1103.780762,1.250424 
	C1173.354248,1.000000 1242.708496,1.000000 1312.531372,0.999997 
z"/>
<path fill="#FE77A2" opacity="1.000000" stroke="none" 
	d="
M289.531342,1.000000 
	C294.513489,6.122375 298.931946,11.332331 303.557068,16.351856 
	C322.967255,37.417313 328.265228,62.526848 321.104126,89.282623 
	C315.098846,111.719765 298.157013,124.538132 275.430237,128.925980 
	C244.393738,134.918198 215.431992,127.704628 188.466141,112.701500 
	C174.307632,104.824059 160.311218,95.889015 148.285797,85.143837 
	C134.227768,72.582481 121.695816,58.095009 109.809586,43.386322 
	C99.182999,30.236387 90.334892,15.649250 80.851028,1.348131 
	C150.354233,1.000000 219.708450,1.000000 289.531342,1.000000 
z"/>
<path fill="#FE77A2" opacity="1.000000" stroke="none" 
	d="
M1102.468628,766.000000 
	C1100.977417,764.322937 1100.103760,762.530334 1098.907715,760.987915 
	C1092.300049,752.467957 1084.687500,744.568787 1079.151611,735.409851 
	C1068.400757,717.622986 1068.072510,697.915161 1072.774780,678.338196 
	C1077.557251,658.427124 1098.837402,641.669739 1119.883789,638.933594 
	C1156.057007,634.230896 1188.494873,643.167786 1218.811035,663.113953 
	C1233.203613,672.583252 1247.548706,681.797974 1259.086182,694.692810 
	C1278.895264,716.832153 1298.392700,739.232605 1313.056641,765.638306 
	C1242.979126,766.000000 1172.958130,766.000000 1102.468628,766.000000 
z"/>
<path fill="#FE77A2" opacity="1.000000" stroke="none" 
	d="
M81.468674,766.000000 
	C84.078865,760.794556 86.665939,755.210815 90.325729,750.452148 
	C102.972893,734.007385 115.552803,717.472412 129.038330,701.725403 
	C137.101852,692.309692 145.893463,682.998413 155.964981,675.930298 
	C176.470856,661.539368 197.387848,647.469482 222.432877,641.486938 
	C241.847870,636.849243 261.321136,636.187561 280.790588,640.229980 
	C299.659851,644.147766 322.079651,665.536560 323.515106,689.405334 
	C325.060669,715.105103 318.600281,737.047485 300.184967,755.269531 
	C296.997772,758.423340 294.235382,762.006470 291.138397,765.695679 
	C221.312439,766.000000 151.624878,766.000000 81.468674,766.000000 
z"/>
<path fill="#D4D4B5" opacity="1.000000" stroke="none" 
	d="
M1.000000,540.000000 
	C1.000000,436.311890 1.000000,332.623810 1.251637,228.435852 
	C1.667269,227.894730 1.831263,227.853439 1.995257,227.812164 
	C1.995257,227.812164 2.027746,227.979156 2.022182,228.521484 
	C2.025697,332.660828 2.034776,436.257843 2.043855,539.854858 
	C2.043855,539.854858 2.021633,540.021729 1.762874,540.040039 
	C1.336076,540.038879 1.168038,540.019470 1.000000,540.000000 
z"/>
<path fill="#CFBD96" opacity="1.000000" stroke="none" 
	d="
M586.976990,1.831538 
	C562.523315,1.745869 538.069641,1.660199 513.307983,1.287265 
	C537.354248,1.000000 561.708435,1.000000 586.526367,1.207905 
	C586.989990,1.415810 586.976990,1.831538 586.976990,1.831538 
z"/>
<path fill="#CFBC96" opacity="1.000000" stroke="none" 
	d="
M880.531372,1.000005 
	C879.264404,1.329419 877.529602,1.940758 875.793152,1.945455 
	C853.844727,2.004822 831.896118,1.976806 809.476746,1.695487 
	C809.005981,1.419878 809.000000,1.000000 809.000000,1.000000 
	C832.687561,1.000000 856.375122,1.000000 880.531372,1.000005 
z"/>
<path fill="#342A28" opacity="1.000000" stroke="none" 
	d="
M2.012673,227.356659 
	C1.831263,227.853439 1.667269,227.894730 1.251637,227.968002 
	C1.000000,209.312439 1.000000,190.624878 0.999999,171.468658 
	C1.333588,172.889984 1.947294,174.778534 1.956927,176.670166 
	C2.042190,193.413513 2.020316,210.157425 2.012673,227.356659 
z"/>
<path fill="#342B28" opacity="1.000000" stroke="none" 
	d="
M1.000000,540.468628 
	C1.168038,540.019470 1.336076,540.038879 1.748838,540.123047 
	C1.994614,556.787720 2.008271,573.387634 1.978652,589.987549 
	C1.975430,591.793091 1.722395,593.598267 1.292616,595.701782 
	C1.000000,577.645752 1.000000,559.291565 1.000000,540.468628 
z"/>
<path fill="#BAA786" opacity="1.000000" stroke="none" 
	d="
M808.531372,1.000000 
	C809.000000,1.000000 809.005981,1.419878 809.013550,1.629702 
	C793.856934,1.783011 778.692749,1.726496 763.264282,1.334991 
	C778.020874,1.000000 793.041809,1.000000 808.531372,1.000000 
z"/>
<path fill="#BAA785" opacity="1.000000" stroke="none" 
	d="
M587.441223,1.910903 
	C586.976990,1.831538 586.989990,1.415810 586.994995,1.207905 
	C601.354248,1.000000 615.708435,1.000000 630.531372,1.000003 
	C629.460815,1.329855 627.923340,1.936658 626.382263,1.945927 
	C613.557007,2.023068 600.731140,1.990028 587.441223,1.910903 
z"/>
<path fill="#EBD7AC" opacity="1.000000" stroke="none" 
	d="
M1013.000122,156.903107 
	C1043.329468,156.934357 1073.168091,157.384720 1102.983276,156.743301 
	C1113.419556,156.518753 1119.730835,161.635849 1123.594360,169.478180 
	C1135.706055,194.062576 1153.744507,212.207413 1178.386841,224.135574 
	C1184.675659,227.179688 1188.252319,231.926849 1188.222534,240.236099 
	C1187.871826,338.059204 1187.860840,435.884521 1188.231201,533.707520 
	C1188.264404,542.493835 1184.103271,546.724060 1177.734375,550.497192 
	C1172.156616,553.801636 1166.350708,556.754883 1160.963745,560.341125 
	C1144.746948,571.136902 1132.969238,585.825195 1124.569336,603.263428 
	C1121.919434,608.764526 1118.450195,611.104004 1111.849365,611.073425 
	C1050.190308,610.787292 988.529236,610.955139 926.868713,610.946716 
	C780.050354,610.926697 633.231995,610.873718 486.413605,610.851379 
	C419.254456,610.841125 352.095062,610.791016 284.936676,611.026306 
	C279.093689,611.046814 276.238373,608.538330 273.781158,603.954285 
	C270.720642,598.244934 267.516632,592.580505 263.935486,587.188293 
	C253.245590,571.092224 238.499817,559.712219 221.462784,550.946899 
	C217.841995,549.084045 214.534592,546.323303 211.666397,543.403015 
	C210.135132,541.843872 209.111771,539.061462 209.109039,536.829590 
	C208.986511,437.005554 208.988815,337.181305 209.031982,237.357132 
	C209.035278,229.753479 215.384918,226.989929 220.527084,223.606491 
	C226.490326,219.682831 232.926468,216.470306 238.835266,212.473007 
	C253.824417,202.332870 264.414978,188.393890 272.777222,172.529602 
	C274.764801,168.758911 277.430481,165.262131 280.230499,162.025360 
	C283.383667,158.380356 287.424164,156.891891 292.572510,156.895264 
	C496.718536,157.028717 700.864624,157.019989 905.010742,157.012527 
	C940.840576,157.011215 976.670410,156.934631 1013.000122,156.903107 
z"/>
<path fill="#43C6F7" opacity="1.000000" stroke="none" 
	d="
M2.481023,539.922729 
	C2.034776,436.257843 2.025697,332.660828 2.036199,228.605377 
	C27.504925,228.888779 51.648266,234.646271 74.576698,245.956070 
	C101.649178,259.309967 124.665771,277.477173 142.371429,301.954193 
	C154.942276,319.332703 161.129181,339.415649 163.750961,360.407776 
	C167.545090,390.786591 164.727875,420.419067 152.186356,448.873260 
	C146.281281,462.270660 137.771729,473.741913 127.705414,483.837738 
	C103.437050,508.177307 75.027969,526.140381 41.320385,534.284424 
	C28.791491,537.311523 15.734411,538.152588 2.481023,539.922729 
z"/>
<path fill="#EEEEEB" opacity="1.000000" stroke="none" 
	d="
M647.681274,93.733139 
	C649.510071,108.765060 641.571777,118.256310 628.995911,123.279465 
	C617.726501,127.780769 606.060608,129.853622 593.918274,129.715866 
	C576.283936,129.515778 558.724487,128.627090 541.548523,124.286743 
	C524.060669,119.867577 508.508057,111.191727 493.727203,101.218124 
	C478.800903,91.146332 465.129059,79.382462 454.598236,64.719978 
	C449.861664,58.125134 447.195801,49.973370 444.024567,42.347477 
	C441.748169,36.873394 444.903992,33.111267 449.290283,30.316084 
	C457.883392,24.840076 467.548126,22.334129 477.485016,21.155611 
	C514.035339,16.820734 549.279602,22.486570 583.061523,36.598198 
	C604.981140,45.754635 625.196167,57.876320 639.737976,77.352753 
	C643.220703,82.017303 644.978149,87.969940 647.681274,93.733139 
z"/>
<path fill="#EEEEEB" opacity="1.000000" stroke="none" 
	d="
M921.844116,21.971142 
	C929.423767,24.585371 936.856201,26.563602 943.657898,29.847975 
	C950.974243,33.380894 952.797668,37.505013 949.711609,44.961617 
	C946.338013,53.113117 942.453186,61.505669 936.889893,68.217117 
	C916.671265,92.608215 891.297424,110.415543 861.672058,121.458298 
	C851.274902,125.333839 839.835327,127.101463 828.711121,128.190613 
	C807.350586,130.281967 785.987305,131.582489 765.143738,123.410172 
	C749.122375,117.128555 742.077576,101.252876 748.775085,86.627266 
	C754.350342,74.452408 763.833862,65.894989 773.807800,57.993839 
	C791.974915,43.602165 813.119385,35.006611 835.179077,28.276480 
	C863.507874,19.633705 892.229919,18.031761 921.844116,21.971142 
z"/>
<path fill="#EEEEEB" opacity="1.000000" stroke="none" 
	d="
M463.136658,692.137024 
	C482.260254,672.479553 503.882416,656.874268 529.354431,647.599487 
	C541.074036,643.332214 553.650879,640.496826 566.060730,639.288818 
	C580.534485,637.880005 595.295837,638.277283 609.842285,639.245361 
	C617.201965,639.735168 624.799133,642.296021 631.528503,645.511780 
	C648.727295,653.730530 653.103149,669.281616 642.684998,685.707520 
	C632.581238,701.637756 617.911316,712.656677 601.551758,721.901978 
	C580.570129,733.759460 557.912842,740.878784 534.568237,745.031738 
	C519.898010,747.641541 504.559387,746.685547 489.514130,746.930176 
	C479.230835,747.097412 469.059357,745.834778 459.369019,742.006104 
	C458.463196,741.648254 457.541443,741.327820 456.648895,740.939880 
	C441.189575,734.221008 440.459564,729.424927 447.485596,714.705322 
	C451.329468,706.652466 457.679657,699.795959 463.136658,692.137024 
z"/>
<path fill="#EEEEEB" opacity="1.000000" stroke="none" 
	d="
M747.472900,660.800232 
	C752.595276,648.533691 763.132080,644.072083 774.411560,641.200806 
	C781.424927,639.415466 788.748352,638.287720 795.975830,638.015869 
	C813.626770,637.352051 831.191711,638.797791 848.500488,642.462646 
	C869.985840,647.011780 888.978516,657.252380 906.030823,670.503235 
	C918.011475,679.813110 928.897949,690.747253 939.133728,701.993042 
	C944.075134,707.422058 947.025208,714.997498 949.727356,722.041931 
	C952.759155,729.945801 949.995544,734.688660 942.468201,738.671753 
	C932.635620,743.874695 922.016418,746.318237 911.144653,746.847107 
	C898.238708,747.474915 885.237183,747.569702 872.347534,746.766113 
	C852.823730,745.548889 834.153992,739.754578 816.054077,732.831665 
	C793.016846,724.020264 771.778198,711.928772 755.944458,692.264038 
	C748.680359,683.242310 743.530151,673.385071 747.472900,660.800232 
z"/>
<path fill="#FE77A2" opacity="1.000000" stroke="none" 
	d="
M387.645721,698.686096 
	C375.553436,701.014038 363.809937,702.403137 352.212769,698.955383 
	C347.429260,697.533264 342.378052,695.598145 338.621918,692.482117 
	C333.639038,688.348328 335.768860,682.260132 337.726410,677.287170 
	C342.926117,664.077698 352.876465,654.825745 364.549622,647.343384 
	C389.662842,631.246155 417.614319,623.089478 446.877655,619.562256 
	C463.553680,617.552185 480.422272,618.122742 497.030853,621.436462 
	C499.442871,621.917664 501.835480,622.782166 504.066986,623.831116 
	C512.188599,627.648682 512.947266,631.324341 507.085510,638.314148 
	C497.441162,649.814392 485.277863,658.169617 472.651215,666.006653 
	C450.537720,679.731873 427.413116,691.017212 401.706604,696.260864 
	C397.193146,697.181580 392.620819,697.813721 387.645721,698.686096 
z"/>
<path fill="#FE77A2" opacity="1.000000" stroke="none" 
	d="
M1008.945129,635.931458 
	C1020.023132,642.924316 1031.332520,649.044983 1041.248535,656.920105 
	C1047.123901,661.586243 1051.845337,668.499695 1055.248413,675.319519 
	C1062.401611,689.654602 1056.328979,696.007874 1042.087036,699.043091 
	C1019.577576,703.840210 997.976257,698.273682 976.764404,691.877808 
	C944.406555,682.121094 915.645752,665.638672 890.896057,642.495056 
	C887.045227,638.894226 881.595642,635.158020 884.249695,628.725403 
	C886.612732,622.997803 892.773804,622.254822 898.043457,621.318176 
	C922.257935,617.014282 946.458862,617.566528 970.275513,623.639648 
	C983.237732,626.945007 995.830872,631.697388 1008.945129,635.931458 
z"/>
<path fill="#FE77A2" opacity="1.000000" stroke="none" 
	d="
M427.232178,78.744926 
	C456.069611,90.967613 483.336823,104.979935 505.258362,127.513252 
	C506.530823,128.821274 507.725922,130.229889 508.787537,131.713013 
	C512.127869,136.379578 511.465576,140.657822 506.177826,142.621399 
	C499.856293,144.968842 493.202911,146.937927 486.532837,147.744629 
	C452.296600,151.885300 419.442566,145.623657 387.848480,132.699997 
	C374.878906,127.394737 362.505981,120.377441 352.292175,110.543259 
	C344.180145,102.732712 336.592377,94.333672 336.083954,81.925056 
	C335.925995,78.069969 337.321655,75.635612 340.175964,73.493332 
	C347.395630,68.074677 356.027863,67.312073 364.403931,67.142937 
	C383.344604,66.760452 401.705261,70.736893 419.711761,76.406013 
	C422.089783,77.154716 424.472137,77.889603 427.232178,78.744926 
z"/>
<path fill="#FE77A2" opacity="1.000000" stroke="none" 
	d="
M970.597290,77.511261 
	C986.867188,73.963097 1002.645996,69.546661 1018.724731,67.570702 
	C1028.175415,66.409279 1038.330933,68.154068 1047.752808,70.366364 
	C1057.663208,72.693367 1060.346558,80.685265 1056.424316,90.267609 
	C1051.311035,102.759674 1042.053223,111.749466 1031.236572,118.957222 
	C1009.247070,133.609940 984.886353,142.492462 958.697571,145.917572 
	C947.075073,147.437622 935.322815,148.534317 923.616821,148.662125 
	C914.738098,148.759048 905.836060,147.049011 896.952942,146.065247 
	C895.480957,145.902252 894.025818,145.422134 892.609314,144.949356 
	C881.805237,141.343430 881.331726,135.430389 888.308716,127.785973 
	C902.032532,112.749405 919.165833,102.501106 936.764160,93.047043 
	C947.558777,87.248039 959.052490,82.750473 970.597290,77.511261 
z"/>
<path fill="#EDECE9" opacity="1.000000" stroke="none" 
	d="
M697.005676,136.682800 
	C688.256958,133.414093 683.926758,126.139984 681.451111,118.519920 
	C674.450012,96.970573 673.777466,74.905548 680.165833,53.077812 
	C682.160889,46.261005 685.962585,39.834846 689.717896,33.708389 
	C693.856079,26.957344 699.909790,27.182611 704.485229,33.506340 
	C712.569580,44.679623 716.402039,57.234287 717.411499,70.905609 
	C718.583191,86.774467 718.110535,102.490562 712.979553,117.647385 
	C710.239075,125.742668 705.928101,133.105164 697.005676,136.682800 
z"/>
<path fill="#EDEDEA" opacity="1.000000" stroke="none" 
	d="
M691.860962,633.768921 
	C695.510620,630.051086 698.694702,630.670837 702.105469,633.664001 
	C709.843201,640.454285 713.430115,649.270935 715.333496,659.107788 
	C718.966980,677.886292 719.188293,696.648010 713.814514,715.037354 
	C711.817444,721.871338 707.908020,728.256775 704.208496,734.451233 
	C700.711792,740.306152 693.908020,740.193726 689.929260,734.702637 
	C681.808655,723.494934 678.111328,710.869995 676.822021,697.134766 
	C675.345764,681.407227 676.329163,665.954773 681.246948,651.077209 
	C683.282532,644.919006 688.052063,639.664490 691.860962,633.768921 
z"/>
<path fill="#FD77A2" opacity="1.000000" stroke="none" 
	d="
M1024.519165,757.634155 
	C1014.574341,755.292664 1004.948669,753.477539 995.553284,750.841431 
	C988.380798,748.828918 982.419556,744.333618 977.944519,738.368164 
	C972.574402,731.209290 973.283020,718.876038 985.344116,715.791138 
	C997.250183,712.745911 1009.100891,714.217163 1020.977539,716.363098 
	C1032.970215,718.530090 1044.024170,723.226196 1054.071655,729.727478 
	C1058.841675,732.814026 1062.418457,738.115295 1065.638184,743.004272 
	C1066.618774,744.493103 1065.187866,748.319946 1063.853882,750.442627 
	C1059.846680,756.818420 1052.972900,757.580139 1046.330200,757.893005 
	C1039.216309,758.227905 1032.069702,757.865417 1024.519165,757.634155 
z"/>
<path fill="#FD77A2" opacity="1.000000" stroke="none" 
	d="
M397.538574,16.402790 
	C403.847168,20.646835 410.219086,24.269876 415.600586,29.015984 
	C420.100830,32.984898 420.178955,39.181915 418.210083,44.415916 
	C415.939056,50.453026 410.150848,52.554440 404.106537,52.949177 
	C381.814423,54.405041 360.486420,50.914242 341.392273,38.701218 
	C336.701752,35.701073 333.023193,30.947201 329.325226,26.618711 
	C326.095032,22.837782 327.959808,19.393225 330.940186,16.104271 
	C337.012726,9.403055 345.263367,9.567792 353.104767,9.109412 
	C368.264069,8.223253 382.749451,12.222124 397.538574,16.402790 
z"/>
<path fill="#FD77A2" opacity="1.000000" stroke="none" 
	d="
M378.986694,756.055847 
	C365.741943,758.937622 352.813599,759.173096 339.932648,756.995850 
	C334.231140,756.032043 330.290924,752.035522 327.955109,746.763184 
	C327.494904,745.724365 327.537262,743.891235 328.171875,743.035767 
	C331.306885,738.809570 333.958405,733.610046 338.163330,730.897522 
	C357.415161,718.478882 378.606964,712.591553 401.684845,714.515320 
	C408.947723,715.120728 415.978210,716.714417 418.608765,724.494629 
	C421.178894,732.096130 416.894073,739.996582 408.722107,745.567566 
	C399.829865,751.629639 389.730408,754.063843 378.986694,756.055847 
z"/>
<path fill="#FD77A2" opacity="1.000000" stroke="none" 
	d="
M990.941284,18.846222 
	C1011.590942,11.008932 1032.367920,6.079366 1054.076172,10.968405 
	C1058.268433,11.912575 1061.927979,16.083147 1065.289307,19.328800 
	C1066.294434,20.299446 1066.005371,23.382847 1065.364746,25.157400 
	C1061.820679,34.974873 1052.951904,38.892204 1044.570679,43.244972 
	C1027.099854,52.318386 1008.275635,53.992428 989.066650,52.883301 
	C983.199341,52.544518 977.593201,49.945206 975.682739,44.074589 
	C973.783386,38.238247 974.731018,32.103481 979.758179,27.633377 
	C983.204224,24.569160 986.982727,21.878925 990.941284,18.846222 
z"/>
<path fill="#AD1D1F" opacity="1.000000" stroke="none" 
	d="
M227.348297,174.348373 
	C236.329987,165.937958 246.161148,159.931381 258.025482,157.755585 
	C265.702118,177.160736 229.029068,213.654404 210.088196,208.331680 
	C211.892105,195.135056 218.074295,184.181061 227.348297,174.348373 
z"/>
<path fill="#3549ED" opacity="1.000000" stroke="none" 
	d="
M1186.558105,205.499969 
	C1187.664185,209.214508 1185.439575,208.909729 1183.361206,208.883179 
	C1175.056641,208.777039 1168.019043,204.954056 1162.333130,199.689117 
	C1155.340088,193.213806 1149.129761,185.782059 1143.271851,178.228073 
	C1138.842651,172.516708 1138.064331,165.518234 1139.359009,158.366364 
	C1154.601074,159.585037 1180.229004,176.022339 1186.558105,205.499969 
z"/>
<path fill="#EB9D1F" opacity="1.000000" stroke="none" 
	d="
M216.300323,583.634277 
	C213.935623,577.626648 211.750549,571.945740 209.530396,566.173645 
	C227.795975,561.564575 259.756592,590.647766 258.700836,610.140015 
	C250.687408,611.808899 243.261810,611.541321 236.220901,606.131775 
	C228.165070,599.942505 221.313538,592.909241 216.300323,583.634277 
z"/>
<path fill="#389218" opacity="1.000000" stroke="none" 
	d="
M1153.669800,610.132935 
	C1148.737793,610.597534 1144.178101,610.895569 1139.884888,611.176208 
	C1135.048462,597.054138 1167.716064,561.493896 1186.942383,565.742798 
	C1182.638672,585.549866 1171.958374,600.385803 1153.669800,610.132935 
z"/>
</svg>